<svg xmlns="http://www.w3.org/2000/svg" xmlns:xlink="http://www.w3.org/1999/xlink" width="549" height="153" viewBox="0 0 549 153">
  <defs>
    <clipPath id="clip-Artboard_17">
      <rect width="549" height="153"/>
    </clipPath>
  </defs>
  <g id="Artboard_17" data-name="Artboard – 17" clip-path="url(#clip-Artboard_17)">
    <g id="Group_6" data-name="Group 6" transform="translate(-831.363 -206.019)">
      <path id="Subtraction_1" data-name="Subtraction 1" d="M13.19,68.991h0A37.722,37.722,0,0,1,18.877,7.633l0,.005,0,0a15.087,15.087,0,0,1,1.694-1.257,31.446,31.446,0,0,1,4.943-2.612,44.584,44.584,0,0,1,8.432-2.6A59.932,59.932,0,0,1,46.056,0h.026A118.746,118.746,0,0,1,61.589,1.226c4.79.65,10.082,1.555,15.729,2.691C86.927,5.851,94.336,7.811,94.409,7.83l0,.014c-.225.763-2.285,7.7-5.367,16.376-1.9,5.351-3.812,10.3-5.68,14.713A129.269,129.269,0,0,1,76.6,52.86c-.707,1.226-1.449,2.428-2.2,3.572a37.689,37.689,0,0,0-11.526-6.749,37.92,37.92,0,0,0-13.066-2.326A37.566,37.566,0,0,0,30.97,52.42v0A17.6,17.6,0,0,0,28.5,53.651a37.824,37.824,0,0,0-6.643,4.986A56.16,56.16,0,0,0,13.19,68.991Z" transform="translate(839.86 215.019)" fill="#0767ea"/>
      <path id="Subtraction_2" data-name="Subtraction 2" d="M13.19,68.991h0A37.722,37.722,0,0,1,18.877,7.633l0,.005,0,0a15.087,15.087,0,0,1,1.694-1.257,31.446,31.446,0,0,1,4.943-2.612,44.584,44.584,0,0,1,8.432-2.6A59.932,59.932,0,0,1,46.056,0h.026A118.746,118.746,0,0,1,61.589,1.226c4.79.65,10.082,1.555,15.729,2.691C86.927,5.851,94.336,7.811,94.409,7.83l0,.014c-.225.763-2.285,7.7-5.367,16.376-1.9,5.351-3.812,10.3-5.68,14.713A129.266,129.266,0,0,1,76.6,52.86c-.707,1.226-1.449,2.428-2.2,3.572a37.689,37.689,0,0,0-11.526-6.749,37.92,37.92,0,0,0-13.066-2.326A37.566,37.566,0,0,0,30.97,52.42v0A17.6,17.6,0,0,0,28.5,53.651a37.824,37.824,0,0,0-6.643,4.986A56.16,56.16,0,0,0,13.19,68.991Z" transform="translate(929.184 349.716) rotate(180)" fill="#17c960"/>
      <path id="Intersection_2" data-name="Intersection 2" d="M0,16.674C4.634,9.7,9.339,6.308,11.883,4.851A13.494,13.494,0,0,1,13.8,3.9v0A29.482,29.482,0,0,1,47.519,6.994C42.885,13.97,38.179,17.36,35.636,18.818a13.459,13.459,0,0,1-1.922.946v0a29.335,29.335,0,0,1-14.623,3.9A29.515,29.515,0,0,1,0,16.674Z" transform="translate(860.09 270.59)" fill="#ffd800"/>
    </g>
    <path id="Path_44" data-name="Path 44" d="M-113.464-10.343v7.385h-2.366V-21.29h5.825a6.645,6.645,0,0,1,4.706,1.469,5.252,5.252,0,0,1,1.56,4.017,5.114,5.114,0,0,1-1.612,4.017,6.757,6.757,0,0,1-4.654,1.443Zm3.25-1.976a4.394,4.394,0,0,0,3.107-.91,3.4,3.4,0,0,0,.949-2.574,3.426,3.426,0,0,0-.949-2.613,4.437,4.437,0,0,0-3.107-.9h-3.25v6.995Zm15.706-5.1a7.574,7.574,0,0,1,3.679.884,6.327,6.327,0,0,1,2.548,2.548,7.913,7.913,0,0,1,.923,3.9A7.839,7.839,0,0,1-88.28-6.2,6.348,6.348,0,0,1-90.829-3.66a7.574,7.574,0,0,1-3.679.884,7.574,7.574,0,0,1-3.679-.884A6.434,6.434,0,0,1-100.749-6.2a7.752,7.752,0,0,1-.936-3.887,7.825,7.825,0,0,1,.936-3.9,6.411,6.411,0,0,1,2.561-2.548A7.574,7.574,0,0,1-94.508-17.416Zm0,2.08a4.946,4.946,0,0,0-2.353.572A4.3,4.3,0,0,0-98.6-13.008a5.912,5.912,0,0,0-.663,2.925,5.854,5.854,0,0,0,.663,2.9,4.3,4.3,0,0,0,1.742,1.755,4.946,4.946,0,0,0,2.353.572,4.946,4.946,0,0,0,2.353-.572,4.3,4.3,0,0,0,1.742-1.755,5.854,5.854,0,0,0,.663-2.9,5.912,5.912,0,0,0-.663-2.925,4.3,4.3,0,0,0-1.742-1.755A4.946,4.946,0,0,0-94.508-15.335Zm29.851-1.9L-68.765-2.958h-2.548L-75.24-14.581-79.192-2.958h-2.574l-4.056-14.275h2.392L-80.389-5.22l3.952-12.013h2.47l3.978,11.987,3.068-11.987Zm15.342,6.345a7.046,7.046,0,0,1-.1,1.3H-60.835a5,5,0,0,0,1.391,3.666A4.539,4.539,0,0,0-56.232-4.7a4.641,4.641,0,0,0,2.873-.871A3.6,3.6,0,0,0-51.942-7.9h2.522a6,6,0,0,1-1.157,2.652A6,6,0,0,1-52.9-3.426a7.707,7.707,0,0,1-3.224.65,7.351,7.351,0,0,1-3.64-.884A6.248,6.248,0,0,1-62.252-6.2a8.023,8.023,0,0,1-.9-3.887,8.1,8.1,0,0,1,.9-3.9,6.228,6.228,0,0,1,2.483-2.548,7.351,7.351,0,0,1,3.64-.884,7.186,7.186,0,0,1,3.627.884,6.087,6.087,0,0,1,2.366,2.366A6.66,6.66,0,0,1-49.315-10.889Zm-2.392.156a4.856,4.856,0,0,0-.52-2.652,3.8,3.8,0,0,0-1.638-1.586,4.987,4.987,0,0,0-2.262-.52A4.682,4.682,0,0,0-59.4-14.282a4.873,4.873,0,0,0-1.43,3.549Zm7.853-3.614a5.25,5.25,0,0,1,2.054-2.3,6.106,6.106,0,0,1,3.224-.819v2.574H-39.3a5.056,5.056,0,0,0-3.276,1.027,4.113,4.113,0,0,0-1.274,3.393v7.515h-2.366V-17.234h2.366Zm20.75,3.458a7.046,7.046,0,0,1-.1,1.3H-34.624a5,5,0,0,0,1.391,3.666A4.539,4.539,0,0,0-30.022-4.7a4.641,4.641,0,0,0,2.873-.871A3.6,3.6,0,0,0-25.731-7.9h2.522a6,6,0,0,1-1.157,2.652,6,6,0,0,1-2.327,1.82,7.707,7.707,0,0,1-3.224.65,7.351,7.351,0,0,1-3.64-.884A6.247,6.247,0,0,1-36.041-6.2a8.023,8.023,0,0,1-.9-3.887,8.1,8.1,0,0,1,.9-3.9,6.228,6.228,0,0,1,2.483-2.548,7.351,7.351,0,0,1,3.64-.884,7.186,7.186,0,0,1,3.627.884,6.087,6.087,0,0,1,2.366,2.366A6.66,6.66,0,0,1-23.1-10.889Zm-2.392.156a4.857,4.857,0,0,0-.52-2.652,3.8,3.8,0,0,0-1.638-1.586,4.987,4.987,0,0,0-2.262-.52,4.682,4.682,0,0,0-3.276,1.209,4.873,4.873,0,0,0-1.43,3.549Zm11.337-6.683a5.866,5.866,0,0,1,3.523,1.04,5.421,5.421,0,0,1,2.015,2.782V-22.2h2.366V-2.958H-8.621V-6.6a5.421,5.421,0,0,1-2.015,2.782,5.866,5.866,0,0,1-3.523,1.04,6.471,6.471,0,0,1-3.38-.884A6.115,6.115,0,0,1-19.868-6.2a8.428,8.428,0,0,1-.845-3.887,8.509,8.509,0,0,1,.845-3.9,6.1,6.1,0,0,1,2.327-2.548A6.471,6.471,0,0,1-14.16-17.416Zm.676,2.106a4.583,4.583,0,0,0-3.5,1.391,5.364,5.364,0,0,0-1.313,3.835,5.364,5.364,0,0,0,1.313,3.835,4.583,4.583,0,0,0,3.5,1.391,4.855,4.855,0,0,0,2.509-.65A4.526,4.526,0,0,0-9.246-7.34a5.8,5.8,0,0,0,.624-2.743,5.873,5.873,0,0,0-.624-2.756,4.419,4.419,0,0,0-1.729-1.833A4.933,4.933,0,0,0-13.484-15.309Zm25.3-2.106a6.471,6.471,0,0,1,3.38.884,6.1,6.1,0,0,1,2.327,2.548,8.509,8.509,0,0,1,.845,3.9A8.428,8.428,0,0,1,17.524-6.2,6.115,6.115,0,0,1,15.2-3.66a6.471,6.471,0,0,1-3.38.884A5.815,5.815,0,0,1,8.293-3.829,5.351,5.351,0,0,1,6.3-6.6v3.64H3.938V-22.2H6.3v8.607a5.351,5.351,0,0,1,1.989-2.769A5.815,5.815,0,0,1,11.817-17.416Zm-.676,2.106a4.953,4.953,0,0,0-2.5.637A4.395,4.395,0,0,0,6.9-12.839a5.873,5.873,0,0,0-.624,2.756A5.8,5.8,0,0,0,6.9-7.34,4.5,4.5,0,0,0,8.644-5.506a4.875,4.875,0,0,0,2.5.65,4.615,4.615,0,0,0,3.523-1.391,5.364,5.364,0,0,0,1.313-3.835,5.364,5.364,0,0,0-1.313-3.835A4.615,4.615,0,0,0,11.14-15.309Zm11.311-1.924L27.08-6l4.29-11.233H34L25.52,3.8H22.842l2.964-6.995L19.8-17.234ZM56.645-21.29V-2.958H54.253v-8.477H44.944v8.477H42.578V-21.29h2.366v7.931h9.309V-21.29Zm2.99,16.512a38.374,38.374,0,0,0,7.073-5.89q2.652-2.925,2.652-5.448a3.785,3.785,0,0,0-.793-2.509,3.158,3.158,0,0,0-2.561-.949,3.336,3.336,0,0,0-2.756,1.157,5.386,5.386,0,0,0-1.04,3.185h-2.34a6.839,6.839,0,0,1,1.9-4.719,6.112,6.112,0,0,1,4.42-1.651,5.82,5.82,0,0,1,4.082,1.378,5.016,5.016,0,0,1,1.508,3.9A7.952,7.952,0,0,1,70.439-12.1,18.941,18.941,0,0,1,67.085-8.12a25.994,25.994,0,0,1-4.147,3.107h9.309v1.95H59.635ZM86.418-21.29v1.924H81.243V-2.958H78.877V-19.366H73.7V-21.29Z" transform="translate(282.706 44.997)" fill="#0c2241" stroke="#0c2241" stroke-width="0.5"/>
    <path id="Path_33" data-name="Path 33" d="M35.687-33.833q3.854,1.217,7.607,2.789a27.329,27.329,0,0,1,6.694,3.955,18.46,18.46,0,0,1,4.767,5.882,18.847,18.847,0,0,1,1.826,8.773A19.7,19.7,0,0,1,54.4-3.051a21.442,21.442,0,0,1-5.73,6.9A25.719,25.719,0,0,1,40.505,8.1a31.045,31.045,0,0,1-9.483,1.471A36.921,36.921,0,0,1,14.49,6.026,44.916,44.916,0,0,1,.9-4.725q2.333-2.738,5.122-6.136T11.144-17a45.162,45.162,0,0,0,3.7,4.615,26.932,26.932,0,0,0,4.564,4.006,24.223,24.223,0,0,0,5.325,2.789,16.619,16.619,0,0,0,5.882,1.065,13.564,13.564,0,0,0,3.195-.406A10.156,10.156,0,0,0,36.854-6.2a7.8,7.8,0,0,0,2.282-2.181,5.385,5.385,0,0,0,.913-3.144,6.4,6.4,0,0,0-1.116-3.8,10.012,10.012,0,0,0-3.043-2.738,24.4,24.4,0,0,0-4.513-2.079q-2.586-.913-5.426-1.826a83.568,83.568,0,0,1-8.824-3.144,29.166,29.166,0,0,1-7.049-4.158,17.153,17.153,0,0,1-4.665-5.882,18.554,18.554,0,0,1-1.572-8.519,17.843,17.843,0,0,1,2.536-9.28,21.8,21.8,0,0,1,6.187-6.491,25.659,25.659,0,0,1,8.418-3.753,35.6,35.6,0,0,1,9.432-1.065,38.456,38.456,0,0,1,8.722,1.065,31.208,31.208,0,0,1,6.592,2.434,27.5,27.5,0,0,1,5.122,3.4q2.282,1.927,4.412,3.854L45.525-41.744a18.95,18.95,0,0,0-2.688-2.941,24.582,24.582,0,0,0-3.753-2.789,23.439,23.439,0,0,0-4.361-2.079,15.538,15.538,0,0,0-4.513-.913,13.594,13.594,0,0,0-2.992.355,11.325,11.325,0,0,0-2.891,1.065A6.778,6.778,0,0,0,22.1-47.119a5.16,5.16,0,0,0-1.014,2.84A5.344,5.344,0,0,0,22.4-40.07a13.171,13.171,0,0,0,3.8,2.84,31.185,31.185,0,0,0,4.868,1.978Q33.659-34.441,35.687-33.833Zm74.747-2.333A25.192,25.192,0,0,1,118.65-17.2a24.986,24.986,0,0,1-8.215,18.966,27.707,27.707,0,0,1-19.98,7.809A28.03,28.03,0,0,1,70.576,1.766,25.341,25.341,0,0,1,62.463-17.2a25.341,25.341,0,0,1,8.114-18.966,28.03,28.03,0,0,1,19.879-7.809A27.707,27.707,0,0,1,110.435-36.165ZM90.556-3.508a12.411,12.411,0,0,0,5.122-1.065,12.921,12.921,0,0,0,4.158-2.941,14.722,14.722,0,0,0,2.84-4.361,13.373,13.373,0,0,0,1.065-5.325,13.373,13.373,0,0,0-1.065-5.325,14.722,14.722,0,0,0-2.84-4.361,12.921,12.921,0,0,0-4.158-2.941,12.411,12.411,0,0,0-5.122-1.065,12.411,12.411,0,0,0-5.122,1.065,12.921,12.921,0,0,0-4.158,2.941,14.722,14.722,0,0,0-2.84,4.361A13.373,13.373,0,0,0,77.372-17.2a13.373,13.373,0,0,0,1.065,5.325,14.722,14.722,0,0,0,2.84,4.361,12.921,12.921,0,0,0,4.158,2.941A12.411,12.411,0,0,0,90.556-3.508Zm43.205-42.8a8.1,8.1,0,0,1-5.882-2.383,7.848,7.848,0,0,1-2.434-5.832,8.014,8.014,0,0,1,2.434-5.882,8.014,8.014,0,0,1,5.882-2.434,7.848,7.848,0,0,1,5.832,2.434,8.1,8.1,0,0,1,2.383,5.882,7.932,7.932,0,0,1-2.383,5.832A7.932,7.932,0,0,1,133.762-46.308Zm-7.505,3.753h14.909V8.156H126.257Zm25.051-20.284h14.909V8.156H151.308Zm59.94,57.81a19.87,19.87,0,0,0,10.244-2.738,21.271,21.271,0,0,0,7.505-7.4L239.139-3a38.554,38.554,0,0,1-12.323,9.179,35.805,35.805,0,0,1-15.568,3.4,36.663,36.663,0,0,1-14.5-2.891,37.006,37.006,0,0,1-11.816-7.911,37.867,37.867,0,0,1-7.962-11.765,35.51,35.51,0,0,1-2.941-14.351,35.51,35.51,0,0,1,2.941-14.351,37.867,37.867,0,0,1,7.962-11.765,37.006,37.006,0,0,1,11.816-7.911,36.663,36.663,0,0,1,14.5-2.89,35.805,35.805,0,0,1,15.568,3.4,38.554,38.554,0,0,1,12.323,9.179L229-39.512a22,22,0,0,0-7.505-7.353,19.593,19.593,0,0,0-10.244-2.789,20.13,20.13,0,0,0-8.317,1.724,21.092,21.092,0,0,0-6.745,4.767,22.847,22.847,0,0,0-4.564,7.1,22.646,22.646,0,0,0-1.673,8.722,22.646,22.646,0,0,0,1.673,8.722,22.847,22.847,0,0,0,4.564,7.1,21.092,21.092,0,0,0,6.745,4.767A20.13,20.13,0,0,0,211.248-5.029Zm87.324-37.526V8.156H283.662V3.085a24.389,24.389,0,0,1-7.4,4.767,22.807,22.807,0,0,1-8.824,1.724,22.742,22.742,0,0,1-9.736-2.13,25.5,25.5,0,0,1-7.962-5.781,27.648,27.648,0,0,1-5.375-8.519A27.221,27.221,0,0,1,242.384-17.2a27.221,27.221,0,0,1,1.978-10.345,27.648,27.648,0,0,1,5.375-8.519,25.5,25.5,0,0,1,7.962-5.781,22.742,22.742,0,0,1,9.736-2.13,22.807,22.807,0,0,1,8.824,1.724,24.389,24.389,0,0,1,7.4,4.767v-5.071ZM270.478-3.508A12.411,12.411,0,0,0,275.6-4.573a12.921,12.921,0,0,0,4.158-2.941,14.722,14.722,0,0,0,2.84-4.361,13.373,13.373,0,0,0,1.065-5.325,13.373,13.373,0,0,0-1.065-5.325,14.722,14.722,0,0,0-2.84-4.361,12.921,12.921,0,0,0-4.158-2.941,12.411,12.411,0,0,0-5.122-1.065,12.411,12.411,0,0,0-5.122,1.065,12.921,12.921,0,0,0-4.158,2.941,14.722,14.722,0,0,0-2.84,4.361,13.373,13.373,0,0,0-1.065,5.325,13.373,13.373,0,0,0,1.065,5.325,14.722,14.722,0,0,0,2.84,4.361,12.921,12.921,0,0,0,4.158,2.941A12.411,12.411,0,0,0,270.478-3.508ZM336.2-43.772a15.564,15.564,0,0,1,5.882.3v14.6a8.851,8.851,0,0,0-2.586-1.369,11.894,11.894,0,0,0-3.3-.659,9.852,9.852,0,0,0-5.223,1.166,11.734,11.734,0,0,0-3.854,3.448,17.146,17.146,0,0,0-2.434,4.919,18.472,18.472,0,0,0-.862,5.578V8.156H308.916V-42.555h14.909v6.187a14.447,14.447,0,0,1,5.325-5.071A19.932,19.932,0,0,1,336.2-43.772ZM398.269-17.2q0,1.217-.1,2.485t-.3,2.383H358.816a14.617,14.617,0,0,0,4.31,7.2,12.011,12.011,0,0,0,8.469,2.941,14.762,14.762,0,0,0,7.252-1.42,12.437,12.437,0,0,0,5.426-5.071L394.414-.668A27.378,27.378,0,0,1,384.12,7.141a28.677,28.677,0,0,1-12.526,2.434A26.316,26.316,0,0,1,361.148,7.5a26.818,26.818,0,0,1-8.519-5.73,26.818,26.818,0,0,1-5.73-8.519A26.315,26.315,0,0,1,344.82-17.2,26.315,26.315,0,0,1,346.9-27.646a26.818,26.818,0,0,1,5.73-8.519,26.818,26.818,0,0,1,8.519-5.73,26.316,26.316,0,0,1,10.446-2.079A26.062,26.062,0,0,1,381.94-41.9a26.818,26.818,0,0,1,8.519,5.73,26.818,26.818,0,0,1,5.73,8.519A26.315,26.315,0,0,1,398.269-17.2Zm-14-4.868a14.617,14.617,0,0,0-4.31-7.2,11.867,11.867,0,0,0-8.367-2.941,12.011,12.011,0,0,0-8.469,2.941,14.617,14.617,0,0,0-4.31,7.2Z" transform="translate(148 120.393)" fill="#09213e"/>
  </g>
</svg>
